# xmcd CD database file
#
# Track frame offsets:
#	150
#	13658
#	29120
#	49453
#	64913
#	87946
#	102765
#	117876
#	138446
#	153378
#	172237
#	195669
#
# Disc length: 2893 seconds
#
# Revision: 0
# Processed by: cddbd v1.5.2PL0 Copyright (c) Steve Scherf et al.
# Submitted via: CDex 1.70beta2
#
DISCID=ab0b4b0c
DTITLE=Dana Fuchs - Bliss Avenue 
DYEAR=2013
DGENRE=Blues
TTITLE0=Bliss Avenue
TTITLE1=How Did Things Get This Way
TTITLE2=Handful Too Many
TTITLE3=Livin On Sunday
TTITLE4=So Hard To Move
TTITLE5=Daddys Little Girl
TTITLE6=Rodents In The Attic
TTITLE7=Baby Loves The Life
TTITLE8=Nothing On My Mind
TTITLE9=Keep On Walking
TTITLE10=Vagabond Wind
TTITLE11=Long Long Game
EXTD=YEAR: 2013
EXTT0=
EXTT1=
EXTT2=
EXTT3=
EXTT4=
EXTT5=
EXTT6=
EXTT7=
EXTT8=
EXTT9=
EXTT10=
EXTT11=
PLAYORDER=
